<svg width="23" height="23" viewBox="0 0 23 23" fill="none" xmlns="http://www.w3.org/2000/svg">
<path d="M5.50144 0.91058C5.50144 0.728196 5.42899 0.553282 5.30002 0.424317C5.17106 0.295352 4.99614 0.2229 4.81376 0.2229C4.63137 0.2229 4.45646 0.295352 4.3275 0.424317C4.19853 0.553282 4.12608 0.728196 4.12608 0.91058V1.59826H2.75072C2.02118 1.59826 1.32153 1.88807 0.805667 2.40393C0.289807 2.91979 0 3.61944 0 4.34898L0 5.72434H22.0058V4.34898C22.0058 3.61944 21.7159 2.91979 21.2001 2.40393C20.6842 1.88807 19.9846 1.59826 19.255 1.59826H17.8797V0.91058C17.8797 0.728196 17.8072 0.553282 17.6783 0.424317C17.5493 0.295352 17.3744 0.2229 17.192 0.2229C17.0096 0.2229 16.8347 0.295352 16.7057 0.424317C16.5768 0.553282 16.5043 0.728196 16.5043 0.91058V1.59826H5.50144V0.91058ZM22.0058 19.4779V7.0997H0V19.4779C0 20.2075 0.289807 20.9071 0.805667 21.423C1.32153 21.9388 2.02118 22.2287 2.75072 22.2287H19.255C19.9846 22.2287 20.6842 21.9388 21.2001 21.423C21.7159 20.9071 22.0058 20.2075 22.0058 19.4779ZM14.9282 12.4003L10.8021 16.5264C10.7382 16.5905 10.6623 16.6413 10.5788 16.6759C10.4952 16.7106 10.4056 16.7284 10.3152 16.7284C10.2247 16.7284 10.1352 16.7106 10.0516 16.6759C9.96808 16.6413 9.8922 16.5905 9.82832 16.5264L7.76528 14.4634C7.63615 14.3342 7.56361 14.1591 7.56361 13.9765C7.56361 13.7939 7.63615 13.6187 7.76528 13.4896C7.89441 13.3605 8.06954 13.2879 8.25216 13.2879C8.43477 13.2879 8.60991 13.3605 8.73903 13.4896L10.3152 15.0672L13.9544 11.4266C14.0835 11.2975 14.2587 11.2249 14.4413 11.2249C14.6239 11.2249 14.799 11.2975 14.9282 11.4266C15.0573 11.5557 15.1298 11.7308 15.1298 11.9135C15.1298 12.0961 15.0573 12.2712 14.9282 12.4003Z" fill="#7DC143"/>
</svg>
