<svg width="24" height="24" viewBox="0 0 24 24" fill="none" xmlns="http://www.w3.org/2000/svg">
<path d="M12.2471 0C5.85382 0 0.652954 5.20086 0.652954 11.5941C0.652954 17.9874 5.85382 23.1882 12.2471 23.1882C18.6403 23.1882 23.8412 17.9874 23.8412 11.5941C23.8412 5.20086 18.6403 0 12.2471 0ZM17.7611 17.5911C17.5727 17.7795 17.3253 17.8743 17.078 17.8743C16.8307 17.8743 16.5832 17.7795 16.395 17.5911L11.564 12.7603C11.3823 12.5797 11.281 12.3341 11.281 12.0773V5.79706C11.281 5.26278 11.7137 4.83094 12.2471 4.83094C12.7805 4.83094 13.2132 5.26278 13.2132 5.79706V11.6773L17.7611 16.225C18.1388 16.6029 18.1388 17.2134 17.7611 17.5911Z" fill="#7DC143"/>
</svg>
